ffmpeg stderr: ffmpeg version 7.0 Copyright (c) 2000-2024 the FFmpeg developers
  built with Apple clang version 13.1.6 (clang-1316.0.21.2.5)
  configuration: --prefix=/Volumes/tempdisk/sw --extra-cflags=-fno-stack-check --arch=arm64 --cc=/usr/bin/clang --enable-gpl --enable-libvmaf --enable-libopenjpeg --enable-libopus --enable-libmp3lame --enable-libx264 --enable-libx265 --enable-libvpx --enable-libwebp --enable-libass --enable-libfreetype --enable-fontconfig --enable-libtheora --enable-libvorbis --enable-libsnappy --enable-libaom --enable-libvidstab --enable-libzimg --enable-libsvtav1 --enable-libharfbuzz --enable-libkvazaar --pkg-config-flags=--static --enable-ffplay --enable-postproc --enable-neon --enable-runtime-cpudetect --disable-indev=qtkit --disable-indev=x11grab_xcb
ffmpeg stderr:   libavutil      59.  8.100 / 59.  8.100
  libavcodec     61.  3.100 / 61.  3.100
  libavformat    61.  1.100 / 61.  1.100
  libavdevice    61.  1.100 / 61.  1.100
  libavfilter    10.  1.100 / 10.  1.100
  libswscale      8.  1.100 /  8.  1.100
  libswresample   5.  1.100 /  5.  1.100
  libpostproc    58.  1.100 / 58.  1.100
ffmpeg stderr: Input #0, mov,mp4,m4a,3gp,3g2,mj2, from '/Users/tonypinkevych/Downloads/Screen Recording 2024-04-27 at 16.35.48.mp4':
  Metadata:
    major_brand     : isom
    minor_version   : 512
    compatible_brands: isomiso2avc1mp41
    encoder         : Lavf61.1.100
  Duration: 00:00:14.96, start: 0.000000, bitrate: 538 kb/s
ffmpeg stderr:   Stream #0:0[0x1](und): Video: h264 (High) (avc1 / 0x31637661), yuv420p(tv, bt709, progressive), 3430x2136, 454 kb/s, 60 fps, 60 tbr, 15360 tbn (default)
      Metadata:
        handler_name    : Core Media Video
        vendor_id       : [0][0][0][0]
        encoder         : Lavc61.3.100 libx264
  Stream #0:1[0x2](und): Audio: aac (LC) (mp4a / 0x6134706D), 48000 Hz, mono, fltp, 69 kb/s (default)
      Metadata:
        handler_name    : Core Media Audio
        vendor_id       : [0][0][0][0]
ffmpeg stderr: Stream mapping:
  Stream #0:0 -> #0:0 (h264 (native) -> h264 (libx264))
  Stream #0:1 -> #0:1 (aac (native) -> aac (native))
ffmpeg stderr: Press [q] to stop, [?] for help
ffmpeg stderr: [libx264 @ 0x1358056c0] using cpu capabilities: ARMv8 NEON
ffmpeg stderr: [libx264 @ 0x1358056c0] profile High, level 5.2, 4:2:0, 8-bit
[libx264 @ 0x1358056c0] 264 - core 164 r3190 7ed753b - H.264/MPEG-4 AVC codec - Copyleft 2003-2024 - http://www.videolan.org/x264.html - options: cabac=1 ref=1 deblock=1:0:0 analyse=0x3:0x113 me=hex subme=2 psy=1 psy_rd=1.00:0.00 mixed_ref=0 me_range=16 chroma_me=1 trellis=0 8x8dct=1 cqm=0 deadzone=21,11 fast_pskip=1 chroma_qp_offset=0 threads=15 lookahead_threads=5 sliced_threads=0 nr=0 decimate=1 interlaced=0 bluray_compat=0 constrained_intra=0 bframes=3 b_pyramid=2 b_adapt=1 b_bias=0 direct=1 weightb=1 open_gop=0 weightp=1 keyint=250 keyint_min=25 scenecut=40 intra_refresh=0 rc_lookahead=10 rc=crf mbtree=1 crf=23.0 qcomp=0.60 qpmin=0 qpmax=69 qpstep=4 ip_ratio=1.40 aq=1:1.00
Output #0, mp4, to '/Users/tonypinkevych/Downloads/Screen Recording 2024-04-27 at 16.35.48-veryfast.mp4':
  Metadata:
    major_brand     :
ffmpeg stderr: isom
    minor_version   : 512
    compatible_brands: isomiso2avc1mp41
    encoder         : Lavf61.1.100
  Stream #0:0(und): Video: h264 (avc1 / 0x31637661), yuv420p(tv, bt709, progressive), 3430x2136, q=2-31, 60 fps, 15360 tbn (default)
      Metadata:
        handler_name    : Core Media Video
        vendor_id       : [0][0][0][0]
        encoder         : Lavc61.3.100 libx264
      Side data:
        cpb: bitrate max/min/avg: 0/0/0 buffer size: 0 vbv_delay: N/A
  Stream #0:1(und): Audio: aac (LC) (mp4a / 0x6134706D), 48000 Hz, mono, fltp, 69 kb/s (default)
      Metadata:
        handler_name    : Core Media Audio
        vendor_id       : [0][0][0][0]
        encoder         : Lavc61.3.100 aac
18:56:13.417 ffmpeg stderr: frame=   25 fps=0.0 q=31.0 size=       0KiB time=00:00:00.38 bitrate=   1.0kbits/s speed=0.759x
18:56:13.904 ffmpeg stderr: frame=  135 fps=134 q=31.0 size=       0KiB time=00:00:02.21 bitrate=   0.2kbits/s speed=2.19x
18:56:14.403 ffmpeg stderr: frame=  248 fps=164 q=31.0 size=       0KiB time=00:00:04.10 bitrate=   0.1kbits/s speed=2.71x
18:56:14.908 ffmpeg stderr: frame=  365 fps=181 q=31.0 size=     256KiB time=00:00:06.05 bitrate= 346.7kbits/s speed=   3x
18:56:15.413 ffmpeg stderr: frame=  481 fps=191 q=31.0 size=     256KiB time=00:00:07.98 bitrate= 262.7kbits/s speed=3.17x
18:56:15.918 ffmpeg stderr: frame=  597 fps=197 q=31.0 size=     512KiB time=00:00:09.91 bitrate= 423.0kbits/s speed=3.28x
18:56:16.424 ffmpeg stderr: frame=  717 fps=203 q=31.0 size=     512KiB time=00:00:11.91 bitrate= 352.0kbits/s speed=3.38x
18:56:16.928 ffmpeg stderr: frame=  833 fps=206 q=31.0 size=     768KiB time=00:00:13.85 bitrate= 454.3kbits/s speed=3.43x
18:56:17.111 ffmpeg stderr: [out#0/mp4 @ 0x600001898000] video:694KiB audio:127KiB subtitle:0KiB other streams:0KiB global headers:0KiB muxing overhead: 3.011800%
frame=  897 fps=213 q=-1.0 Lsize=     846KiB time=00:00:14.91 bitrate= 464.3kbits/s speed=3.54x
18:56:17.111 ffmpeg stderr: [libx264 @ 0x1358056c0] frame I:4     Avg QP:12.56  size: 72199
[libx264 @ 0x1358056c0] frame P:227   Avg QP:23.22  size:  1069
[libx264 @ 0x1358056c0] frame B:666   Avg QP:27.90  size:   268
[libx264 @ 0x1358056c0] consecutive B-frames:  0.7%  0.7%  1.0% 97.7%
[libx264 @ 0x1358056c0] mb I  I16..4: 93.3%  1.0%  5.7%
[libx264 @ 0x1358056c0] mb P  I16..4:  0.4%  0.0%  0.1%  P16..4:  0.1%  0.0%  0.0%  0.0%  0.0%    skip:99.4%
[libx264 @ 0x1358056c0] mb B  I16..4:  0.0%  0.0%  0.0%  B16..8:  0.1%  0.0%  0.0%  direct: 0.0%  skip:99.9%  L0:47.7% L1:51.9% BI: 0.4%
[libx264 @ 0x1358056c0] 8x8 transform intra:1.9% inter:23.1%
[libx264 @ 0x1358056c0] coded y,uvDC,uvAC intra: 5.8% 4.2% 2.6% inter: 0.0% 0.0% 0.0%
[libx264 @ 0x1358056c0] i16 v,h,dc,p: 82% 18%  0%  0%
18:56:17.111 ffmpeg stderr: [libx264 @ 0x1358056c0] i8 v,h,dc,ddl,ddr,vr,hd,vl,hu: 27% 40% 25%  2%  1%  1%  1%  1%  2%
[libx264 @ 0x1358056c0] i4 v,h,dc,ddl,ddr,vr,hd,vl,hu: 29% 23% 29%  2%  5%  3%  3%  3%  3%
[libx264 @ 0x1358056c0] i8c dc,h,v,p: 85% 12%  3%  0%
[libx264 @ 0x1358056c0] Weighted P-Frames: Y:0.0% UV:0.0%
[libx264 @ 0x1358056c0] kb/s:379.90
18:56:17.142 ffmpeg stderr: [aac @ 0x123e64c90] Qavg: 358.241
